<svg xmlns="http://www.w3.org/2000/svg" width="400" height="260" viewBox="0 0 400 260" role="img" aria-label="First Microprocessor">
  <defs>
    <filter id="shadow" x="0" y="0" width="400" height="260" filterUnits="userSpaceOnUse">
      <feDropShadow dx="0" dy="8" stdDeviation="10" flood-color="#000000" flood-opacity="0.12"/>
    </filter>
  </defs>
  <g filter="url(#shadow)">
    
<rect width="400" height="260" fill="#eef5fb"/>
<rect x="0" y="0" width="400" height="72" fill="#cde8ff"/>
<rect x="38" y="44" width="324" height="174" rx="18" fill="#f5f7fb"/>
<rect x="58" y="66" width="284" height="128" rx="18" fill="#d9e2f2"/>
<rect x="78" y="84" width="244" height="92" rx="14" fill="#0a1534"/>
<rect x="102" y="98" width="196" height="10" rx="5" fill="#eef5ff" opacity="0.82"/>
<rect x="102" y="118" width="146" height="8" rx="4" fill="#89b7ff" opacity="0.78"/>
<rect x="102" y="136" width="108" height="8" rx="4" fill="#5f90ff" opacity="0.64"/>
<rect x="278" y="94" width="18" height="18" rx="9" fill="#0b5bff"/>
<rect x="278" y="118" width="12" height="22" rx="6" fill="#7ea9ff"/>
<rect x="68" y="208" width="264" height="12" rx="6" fill="#d7e1f0"/>
<circle cx="324" cy="48" r="12" fill="#0b5bff" opacity="0.1"/>

  </g>
  <rect x="18" y="18" width="90" height="28" rx="14" fill="#ffffff" opacity="0.92"/>
  <text x="63" y="38" text-anchor="middle" font-family="Arial, sans-serif" font-size="12" font-weight="700" fill="#0b1020">1971</text>
  <text x="36" y="236" font-family="Arial, sans-serif" font-size="16" font-weight="700" fill="#0b1020">First Microprocessor</text>
</svg>