<svg xmlns="http://www.w3.org/2000/svg" width="400" height="260" viewBox="0 0 400 260" role="img" aria-label="8086 Processor">
  <defs>
    <filter id="shadow" x="0" y="0" width="400" height="260" filterUnits="userSpaceOnUse">
      <feDropShadow dx="0" dy="8" stdDeviation="10" flood-color="#000000" flood-opacity="0.12"/>
    </filter>
  </defs>
  <g filter="url(#shadow)">
    
<rect width="400" height="260" fill="#eef3fb"/>
<rect x="0" y="0" width="400" height="72" fill="#d7e4ff"/>
<rect x="32" y="48" width="336" height="176" rx="18" fill="#f7f9ff"/>
<rect x="52" y="66" width="296" height="136" rx="12" fill="#0b1334"/>
<rect x="68" y="82" width="264" height="18" rx="9" fill="#dce7ff" opacity="0.9"/>
<rect x="68" y="110" width="182" height="10" rx="5" fill="#6b95ff" opacity="0.78"/>
<rect x="68" y="130" width="216" height="10" rx="5" fill="#2f61ff" opacity="0.66"/>
<rect x="68" y="150" width="128" height="10" rx="5" fill="#9bb8ff" opacity="0.58"/>
<rect x="282" y="88" width="36" height="36" rx="8" fill="#0f66ff"/>
<circle cx="300" cy="106" r="6" fill="#ffffff" opacity="0.9"/>
<rect x="72" y="176" width="110" height="8" rx="4" fill="#9fb8ff" opacity="0.7"/>
<rect x="72" y="188" width="80" height="8" rx="4" fill="#dce7ff" opacity="0.6"/>

  </g>
  <rect x="18" y="18" width="90" height="28" rx="14" fill="#ffffff" opacity="0.92"/>
  <text x="63" y="38" text-anchor="middle" font-family="Arial, sans-serif" font-size="12" font-weight="700" fill="#0b1020">1978</text>
  <text x="36" y="236" font-family="Arial, sans-serif" font-size="16" font-weight="700" fill="#0b1020">8086 Processor</text>
</svg>