<svg xmlns="http://www.w3.org/2000/svg" width="400" height="260" viewBox="0 0 400 260" role="img" aria-label="386 Processor">
  <defs>
    <filter id="shadow" x="0" y="0" width="400" height="260" filterUnits="userSpaceOnUse">
      <feDropShadow dx="0" dy="8" stdDeviation="10" flood-color="#000000" flood-opacity="0.12"/>
    </filter>
  </defs>
  <g filter="url(#shadow)">
    
<rect width="400" height="260" fill="#f2f4f9"/>
<rect x="0" y="0" width="400" height="86" fill="#e4e9f5"/>
<rect x="56" y="50" width="288" height="164" rx="20" fill="#f9fbff"/>
<rect x="74" y="68" width="90" height="128" rx="12" fill="#0e1635"/>
<rect x="176" y="68" width="150" height="128" rx="12" fill="#e7edff"/>
<rect x="192" y="86" width="118" height="14" rx="7" fill="#0d1638"/>
<rect x="192" y="110" width="84" height="10" rx="5" fill="#6d8eff" opacity="0.75"/>
<rect x="192" y="130" width="100" height="10" rx="5" fill="#214dff" opacity="0.6"/>
<rect x="192" y="150" width="62" height="10" rx="5" fill="#b4c8ff" opacity="0.7"/>
<rect x="90" y="84" width="50" height="14" rx="7" fill="#2b58ff"/>
<rect x="90" y="114" width="50" height="6" rx="3" fill="#94aef8" opacity="0.82"/>
<rect x="90" y="128" width="28" height="6" rx="3" fill="#94aef8" opacity="0.62"/>

  </g>
  <rect x="18" y="18" width="90" height="28" rx="14" fill="#ffffff" opacity="0.92"/>
  <text x="63" y="38" text-anchor="middle" font-family="Arial, sans-serif" font-size="12" font-weight="700" fill="#0b1020">1985</text>
  <text x="36" y="236" font-family="Arial, sans-serif" font-size="16" font-weight="700" fill="#0b1020">386 Processor</text>
</svg>