<svg xmlns="http://www.w3.org/2000/svg" width="400" height="260" viewBox="0 0 400 260" role="img" aria-label="RISE Strategy">
  <defs>
    <filter id="shadow" x="0" y="0" width="400" height="260" filterUnits="userSpaceOnUse">
      <feDropShadow dx="0" dy="8" stdDeviation="10" flood-color="#000000" flood-opacity="0.12"/>
    </filter>
  </defs>
  <g filter="url(#shadow)">
    
<rect width="400" height="260" fill="#eef7f7"/>
<rect x="0" y="0" width="400" height="82" fill="#bfeeea" opacity="0.35"/>
<rect x="32" y="48" width="336" height="174" rx="18" fill="#f6fbfb"/>
<rect x="54" y="72" width="292" height="122" rx="16" fill="#ddeff0"/>
<path d="M80 176c22-38 44-56 82-56 38 0 58 18 86 18 24 0 50-14 84-50" stroke="#14b8a6" stroke-width="10" stroke-linecap="round" fill="none" opacity="0.88"/>
<circle cx="132" cy="92" r="34" fill="#0f7d78"/>
<path d="M132 74v36M114 92h36" stroke="#e5fffb" stroke-width="8" stroke-linecap="round"/>
<rect x="212" y="82" width="112" height="18" rx="9" fill="#0c3d40" opacity="0.92"/>
<rect x="212" y="110" width="76" height="10" rx="5" fill="#49c9bf"/>
<rect x="212" y="130" width="92" height="10" rx="5" fill="#aeeae3"/>

  </g>
  <rect x="18" y="18" width="90" height="28" rx="14" fill="#ffffff" opacity="0.92"/>
  <text x="63" y="38" text-anchor="middle" font-family="Arial, sans-serif" font-size="12" font-weight="700" fill="#0b1020">2020</text>
  <text x="36" y="236" font-family="Arial, sans-serif" font-size="16" font-weight="700" fill="#0b1020">RISE Strategy</text>
</svg>