<svg xmlns="http://www.w3.org/2000/svg" width="400" height="260" viewBox="0 0 400 260" role="img" aria-label="Net-Zero By 2040">
  <defs>
    <filter id="shadow" x="0" y="0" width="400" height="260" filterUnits="userSpaceOnUse">
      <feDropShadow dx="0" dy="8" stdDeviation="10" flood-color="#000000" flood-opacity="0.12"/>
    </filter>
  </defs>
  <g filter="url(#shadow)">
    
<rect width="400" height="260" fill="#eef9f0"/>
<rect x="0" y="0" width="400" height="82" fill="#b5e7bd" opacity="0.3"/>
<rect x="24" y="44" width="352" height="178" rx="18" fill="#f7fff8"/>
<path d="M60 186c26-36 50-52 82-52 40 0 62 16 94 16 26 0 48-12 68-36" stroke="#47c159" stroke-width="10" stroke-linecap="round" fill="none" opacity="0.84"/>
<rect x="78" y="72" width="40" height="40" rx="8" fill="#0d7f29" opacity="0.95"/>
<rect x="134" y="64" width="40" height="48" rx="8" fill="#8deaa2" opacity="0.95"/>
<rect x="190" y="76" width="40" height="36" rx="8" fill="#2ca94f" opacity="0.95"/>
<circle cx="280" cy="88" r="18" fill="#18a342"/>
<path d="M280 78v20M270 88h20" stroke="#effff0" stroke-width="6" stroke-linecap="round"/>
<rect x="274" y="122" width="84" height="16" rx="8" fill="#0a4020" opacity="0.9"/>

  </g>
  <rect x="18" y="18" width="90" height="28" rx="14" fill="#ffffff" opacity="0.92"/>
  <text x="63" y="38" text-anchor="middle" font-family="Arial, sans-serif" font-size="12" font-weight="700" fill="#0b1020">2022</text>
  <text x="36" y="236" font-family="Arial, sans-serif" font-size="16" font-weight="700" fill="#0b1020">Net-Zero By 2040</text>
</svg>